<?xml version="1.0" encoding="UTF-8"?>
<!DOCTYPE svg  PUBLIC '-//W3C//DTD SVG 1.1//EN'  'http://www.w3.org/Graphics/SVG/1.1/DTD/svg11.dtd'>
<svg enable-background="new 0 0 3004.7 8362.2" version="1.1" viewBox="0 0 3004.7 8362.2" xml:space="preserve" xmlns="http://www.w3.org/2000/svg">
	<path d="m854.9 3652.8c12.6-19.2 25.1-38.4 39.2-60.1-9.6-4.5-17-8.4-24.7-11.5-60.8-24.5-121.5-49.1-182.6-72.9-13.5-5.2-18.8-12.3-17.1-26.9 2.5-21.2 2-42.9 5.5-63.9 1.2-7.1 9.3-16.7 16.2-18.8 81.6-25.5 165.1-41.4 250.7-36.7 43 2.3 86.7 8.5 128 20.2 77.5 21.8 129 75.8 155.8 150.3 19.6 54.5 36.7 110.7 46.8 167.5 20.4 114 77.3 201.9 167.3 273.8 234.4 187.3 466.4 377.5 699.8 566 90.1 72.8 181.4 144.1 272.4 215.9 37.3 29.4 66.2 64.6 76.4 112.1 17.7 82.6-34 157.3-118.3 172.7-71.4 13.1-133-9.1-185.7-55.1-109.5-95.5-217.1-193.3-326.1-289.5-196.3-173.3-393.1-346.2-589.7-519.2-24.6-21.7-49.9-42.7-74.3-64.6-46.9-42-101.8-65-164.2-72.8-55.7-7-112.3-11.3-166.3-25.4-45.8-12-88.6-36.1-132.2-55.9-4.6-2.1-8.4-12.1-7.8-18 2.6-28.6 6.2-57.1 10.6-85.5 2.5-15.7-7.2-22.5-17.2-30.9-33.2-27.9-67.9-54.5-98-85.4-33-33.9-48.7-76.2-41.8-125.1 3.1-21.8 5.3-43.8 7.1-65.8 1.2-14.4 8.3-18.9 21.5-15 73.1 21.3 146.4 42.3 219.2 64.5 6.5 2 13 10.5 15.6 17.5 4.4 11.6 5.8 24.4 8.5 36.8 1.9 0.5 3.7 1.1 5.4 1.7zm261.7 337.3c14.1 5.5 24.8 11 36.3 13.9 34.8 8.9 62.5 28.7 88.7 52.4 171.5 154.8 344 308.6 515.3 463.6 147.5 133.4 294.3 267.7 440.9 402.2 32.5 29.8 68.7 50.7 112.2 58.8 54.8 10.1 113.5-22.7 139.3-77 16.5-34.7 10.7-88.6-40.2-128.4-213.7-167-426.4-335.4-637.6-505.5-129.9-104.5-256.5-213.1-384.7-319.7-58-48.3-96.2-109-115.3-181.9-1.3-4.8-3.6-9.3-7-17.8-49.9 80.8-98 158.5-147.9 239.4zm-392.2-585.2c-0.1 2.6-0.3 5.3-0.4 7.9 7.3 2.9 14.6 5.9 22 8.6 47.2 16.9 93.9 36 142 49.9 30.9 8.9 41.1 24.8 43.7 55.9 2.3 27.3-3 48.2-17.8 70.7-47.6 72-93.2 145.4-139.1 218.5-11.9 18.9-7 23.5 14.9 27.4 33.9 6.1 67.2 15.8 100.6 24.4 6.8 1.8 13.2 5.3 20.3 8.2 6.5-9.7 12-17.9 18.7-28-11.5-10.7-21.8-21.2-33-30.5-11.4-9.5-12.4-18.5-4.2-31.1 22-33.6 42.9-67.9 64.3-101.9 27.5-43.7 27.6-43.8 79.1-40.7 8.3 0.5 16.4 3.6 25.8 5.8 36.3-54.7 72.8-109.2 108.2-164.3 2.8-4.3 0.1-15.4-3.9-20.2-31.5-37.9-73.2-59.7-120-72.6-57.7-15.9-116.6-17.5-175.4-11.1-48.8 5.3-97.2 15.2-145.8 23.1zm56.2 363c10.3-16.2 18.5-32.7 29.9-46.3 22.7-27.1 27.5-55.7 16.9-89.2-3.9-12.5-8.6-19.1-21.1-22.7-62.4-17.7-124.6-36.2-187-54.3-4.8-1.4-9.9-1.6-14.8-2.4-12.2 51.3 71.9 148.7 176.1 214.9zm266.4-51.3c37 0.7 61.4 22.1 75.3 62.4 1.9 5.4 8.9 9 13.5 13.5 2.7-4.7 8.3-9.8 7.7-14.1-4.8-32.7-22.7-56.9-51.8-72.1-29.2-15.3-59.2-15.7-88.6-0.4-4 2.1-5.3 9.3-7.8 14.2 5.7 1.7 11.7 5.5 17 4.7 11.7-1.6 23.2-8.4 34.7-8.2zm-50.9 88.3c-13.4 3.7-27.3 6.2-40 11.6-4.9 2.1-6.9 10.7-10.3 16.3 6.3 1.1 13.5 4.7 18.9 3 51.7-16.5 90.4 3 106.9 53.7 1.9 5.9 9.7 9.8 14.7 14.7 2.1-6.8 6.9-14.1 5.8-20.3-7.9-43.7-49.7-76.7-96-79zm24.7-55.8c-12.8 3.4-26.2 5.5-38.2 10.9-5.3 2.4-7.8 11.3-11.5 17.3 6.4 0.9 13.6 4.2 19.2 2.4 50.9-16.5 89.4 3.1 106.6 54.3 1.9 5.7 9.9 9.4 15 14 1.9-6.9 6.5-14.4 5.3-20.7-9.1-44-50.8-76.6-96.4-78.2z"/>
	<path d="m2251.4 4719.7c-43 14-77 35-94.8 77.4-6.1-4.5-11-7.5-15.3-11.3-285.1-254.1-570.1-508.2-855-762.5-10-8.9-19.4-18.5-28.9-27.9-9.6-9.4-17.3-19.7-8.6-33.5 8.8-14.1 22.6-16.4 37.1-12.2 7.4 2.1 14.3 7.2 20.5 12.1 311.7 249.5 623.3 499.2 934.9 748.9 2.6 2.1 5 4.4 10.1 9z"/>
	<path d="m2297.4 4756.9c42.9 1.6 71.5 11.2 94.7 33.9 44.2 43.2 36.8 110-15.6 142.8-43.4 27.2-103.9 22.5-142.5-11.1-48.4-42.2-43.6-113.8 11.7-146.5 18.4-10.9 40.7-15.2 51.7-19.1zm16.1 58.4c-34.1 0-60.6 13.2-77.6 43.9-7.1 12.9-5.8 23.4 3.3 34.8 29.3 36.6 95.4 45.3 133.1 16.9 13.6-10.2 19-23.6 16.1-40.4-5.9-34.8-33.2-55-74.9-55.2z"/>
</svg>
